<svg width="256" height="256" viewBox="0 0 256 256" fill="none" xmlns="http://www.w3.org/2000/svg">
<path fill-rule="evenodd" clip-rule="evenodd" d="M166.5 61.5C165.105 59.9456 164.439 60.279 164.5 62.5C165.556 65.6128 166.889 68.6128 168.5 71.5C168.167 71.8333 167.833 72.1667 167.5 72.5C133.939 66.4446 100.606 67.6113 67.5 76C65.6803 76.2004 64.347 77.0337 63.5 78.5C57.7135 69.9679 54.2135 60.6346 53 50.5C54.1667 49.3333 55.3333 48.1667 56.5 47C83.1654 34.0832 109.999 21.5832 137 9.5C139.923 9.7952 142.257 11.1285 144 13.5C151.785 29.4012 159.285 45.4012 166.5 61.5Z" fill="#EDE765"/>
<path fill-rule="evenodd" clip-rule="evenodd" d="M166.5 61.5C179.283 86.7355 191.283 112.402 202.5 138.5C202.444 141.111 201.444 143.278 199.5 145C186.604 151.461 173.604 157.628 160.5 163.5C158.046 164.227 155.713 165.227 153.5 166.5C151.384 161.375 149.884 156.041 149 150.5C147.846 138.811 146.513 127.144 145 115.5C142.693 109.934 138.86 107.934 133.5 109.5C130.548 108.027 127.881 108.36 125.5 110.5C124.115 111.574 122.949 112.907 122 114.5C121.667 127.833 121.333 141.167 121 154.5C118.195 160.798 113.362 163.465 106.5 162.5C104.193 161.023 102.36 159.023 101 156.5C94.0586 141.619 86.892 126.953 79.5 112.5C79.0075 110.181 78.0075 108.181 76.5 106.5C71.6221 97.4113 67.2887 88.078 63.5 78.5C64.347 77.0337 65.6803 76.2004 67.5 76C100.606 67.6113 133.939 66.4446 167.5 72.5C167.833 72.1667 168.167 71.8333 168.5 71.5C166.889 68.6128 165.556 65.6128 164.5 62.5C164.439 60.279 165.105 59.9456 166.5 61.5Z" fill="#FFF85C"/>
<path fill-rule="evenodd" clip-rule="evenodd" d="M133.5 109.5C138.86 107.934 142.693 109.934 145 115.5C146.513 127.144 147.846 138.811 149 150.5C149.884 156.041 151.384 161.375 153.5 166.5C151.703 167.73 149.703 168.396 147.5 168.5C145.207 162.332 143.373 155.998 142 149.5C141.179 137.774 139.845 126.107 138 114.5C136.951 112.382 135.451 110.716 133.5 109.5Z" fill="#E3DB1C"/>
<path opacity="0.999" fill-rule="evenodd" clip-rule="evenodd" d="M133.5 109.5C135.451 110.716 136.951 112.382 138 114.5C139.845 126.107 141.179 137.774 142 149.5C143.373 155.998 145.207 162.332 147.5 168.5C150.098 172.697 152.431 177.03 154.5 181.5C157.751 195.243 154.251 206.91 144 216.5C143.667 225.167 143.333 233.833 143 242.5C141.301 243.406 139.467 243.739 137.5 243.5C136.173 239.217 135.507 234.551 135.5 229.5C135.833 224.833 136.167 220.167 136.5 215.5C146.514 204.809 149.347 192.476 145 178.5C140.841 171.184 137.508 163.517 135 155.5C133.004 141.874 131.337 128.207 130 114.5C129.124 112.365 127.624 111.031 125.5 110.5C127.881 108.36 130.548 108.027 133.5 109.5Z" fill="#EAC2B3"/>
<path fill-rule="evenodd" clip-rule="evenodd" d="M76.5 106.5C78.0075 108.181 79.0075 110.181 79.5 112.5C78.3161 125.454 80.8161 137.787 87 149.5C91.7315 157.076 98.2315 161.41 106.5 162.5C113.362 163.465 118.195 160.798 121 154.5C121.333 141.167 121.667 127.833 122 114.5C122.949 112.907 124.115 111.574 125.5 110.5C127.624 111.031 129.124 112.365 130 114.5C131.337 128.207 133.004 141.874 135 155.5C137.508 163.517 140.841 171.184 145 178.5C149.347 192.476 146.514 204.809 136.5 215.5C136.167 220.167 135.833 224.833 135.5 229.5C135.507 234.551 136.173 239.217 137.5 243.5C123.89 246.34 110.223 246.006 96.5 242.5C95.668 233.518 95.168 224.518 95 215.5C85.6667 194.833 76.3333 174.167 67 153.5C64.2404 147.619 63.9071 141.619 66 135.5C70.2052 126.048 73.7052 116.381 76.5 106.5Z" fill="#F4D5C6"/>
<path fill-rule="evenodd" clip-rule="evenodd" d="M79.5 112.5C86.892 126.953 94.0586 141.619 101 156.5C102.36 159.023 104.193 161.023 106.5 162.5C98.2315 161.41 91.7315 157.076 87 149.5C80.8161 137.787 78.3161 125.454 79.5 112.5Z" fill="#EAC1B1"/>
<path opacity="0.998" fill-rule="evenodd" clip-rule="evenodd" d="M160.5 163.5C160.927 166.376 161.594 169.209 162.5 172C162.032 177.142 159.366 180.309 154.5 181.5C152.431 177.03 150.098 172.697 147.5 168.5C149.703 168.396 151.703 167.73 153.5 166.5C155.713 165.227 158.046 164.227 160.5 163.5Z" fill="#D1A697"/>
</svg>
